<svg width="132" height="40" viewBox="0 0 132 40" fill="none" xmlns="http://www.w3.org/2000/svg">
<path d="M40.347 18.0549L38.8837 16.6091L35.2123 12.9817L32.5518 10.3531C32.3031 10.1123 31.9688 9.97745 31.6206 9.97745C31.2725 9.97745 30.9381 10.1123 30.6895 10.3531L28.029 12.9817L24.5704 16.2937L28.2419 20L30.9023 17.3714C30.9817 17.2903 31.0768 17.2259 31.1819 17.1818C31.287 17.1378 31.4 17.1151 31.5142 17.1151C31.6284 17.1151 31.7414 17.1378 31.8465 17.1818C31.9517 17.2259 32.0467 17.2903 32.1261 17.3714L34.5472 19.7634C34.63 19.8441 34.6958 19.9403 34.7407 20.0463C34.7856 20.1524 34.8087 20.2662 34.8087 20.3811C34.8087 20.4961 34.7856 20.6099 34.7407 20.7159C34.6958 20.822 34.63 20.9182 34.5472 20.9989L25.5814 29.6206C25.4482 29.7444 25.2721 29.8134 25.0892 29.8134C24.9063 29.8134 24.7303 29.7444 24.597 29.6206L21.9366 26.992C21.8112 26.8604 21.7414 26.6864 21.7414 26.5057C21.7414 26.325 21.8112 26.1511 21.9366 26.0194L24.7832 23.1806L21.2182 19.6057L18.5578 22.2343C18.3909 22.3858 18.1725 22.4698 17.9459 22.4698C17.7192 22.4698 17.5009 22.3858 17.3339 22.2343L14.9395 20C14.8575 19.9216 14.7922 19.8276 14.7476 19.7238C14.7031 19.6199 14.6801 19.5082 14.6801 19.3954C14.6801 19.2826 14.7031 19.171 14.7476 19.0671C14.7922 18.9632 14.8575 18.8693 14.9395 18.7909L28.0024 5.85829L25.3419 3.22972C25.2729 3.15587 25.192 3.09371 25.1025 3.04572H24.8897H23.9851C23.6761 3.1185 23.3974 3.28374 23.187 3.51886L10.5498 15.6891L9.11311 17.1086C8.82192 17.3944 8.59083 17.7343 8.43313 18.1088C8.27543 18.4832 8.19424 18.8847 8.19424 19.2903C8.19424 19.6958 8.27543 20.0974 8.43313 20.4718C8.59083 20.8463 8.82192 21.1862 9.11311 21.472L10.5498 22.9177L14.2212 26.5189L17.866 30.1463L21.5109 33.7211L24.1713 36.3497C24.4245 36.5922 24.7632 36.7278 25.1158 36.7278C25.4684 36.7278 25.8071 36.5922 26.0603 36.3497L38.8837 23.8377L40.347 22.392C40.9206 21.8124 41.2418 21.034 41.2418 20.2234C41.2418 19.4128 40.9206 18.6344 40.347 18.0549Z" fill="#4ADE80"/>
<path d="M57.906 13.0343V25.6252C57.906 25.904 57.7939 26.1715 57.5943 26.3686C57.3948 26.5658 57.1241 26.6766 56.8418 26.6766C56.7011 26.6802 56.5611 26.6555 56.4303 26.6039C56.2995 26.5524 56.1808 26.4751 56.0812 26.3767C55.9816 26.2783 55.9034 26.161 55.8512 26.0318C55.799 25.9026 55.774 25.7642 55.7777 25.6252V20.368H49.1797V25.6252C49.1797 25.904 49.0676 26.1715 48.868 26.3686C48.6684 26.5658 48.3978 26.6766 48.1155 26.6766C47.8333 26.6766 47.5626 26.5658 47.363 26.3686C47.1634 26.1715 47.0513 25.904 47.0513 25.6252V13.0343C47.0513 12.7555 47.1634 12.488 47.363 12.2908C47.5626 12.0937 47.8333 11.9829 48.1155 11.9829C48.3978 11.9829 48.6684 12.0937 48.868 12.2908C49.0676 12.488 49.1797 12.7555 49.1797 13.0343V18.2915H55.7777V13.0343C55.774 12.8953 55.799 12.7569 55.8512 12.6277C55.9034 12.4985 55.9816 12.3812 56.0812 12.2828C56.1808 12.1844 56.2995 12.1071 56.4303 12.0556C56.5611 12.004 56.7011 11.9793 56.8418 11.9829C57.1241 11.9829 57.3948 12.0937 57.5943 12.2908C57.7939 12.488 57.906 12.7555 57.906 13.0343Z" fill="#232323"/>
<path d="M69.479 26.6503C69.1908 26.7072 68.8915 26.662 68.6336 26.5226C68.3758 26.3832 68.1759 26.1585 68.069 25.888L67.2975 23.7325H62.1096L61.205 25.888C61.1601 26.1152 61.0324 26.3183 60.846 26.4588C60.6597 26.5993 60.4277 26.6674 60.194 26.6503H59.9546C59.6774 26.5492 59.4467 26.3524 59.3049 26.0964C59.1631 25.8403 59.1198 25.5422 59.183 25.2571L63.7324 12.7188C63.809 12.4991 63.9522 12.308 64.1427 12.1716C64.3331 12.0352 64.5614 11.9601 64.7966 11.9565C65.0211 11.9647 65.2373 12.0428 65.4141 12.1797C65.5909 12.3167 65.7194 12.5054 65.781 12.7188L70.1176 25.2571C70.1725 25.3896 70.1995 25.5318 70.1969 25.675C70.1943 25.8181 70.1621 25.9593 70.1023 26.0897C70.0426 26.2202 69.9564 26.3372 69.8492 26.4335C69.7421 26.5299 69.6161 26.6037 69.479 26.6503ZM66.6589 21.6297L64.7966 16.2411L62.8279 21.6297H66.6589Z" fill="#232323"/>
<path d="M85.3088 25.7829L83.4997 17.0035L80.1741 25.888C80.1112 26.1086 79.9771 26.3028 79.7922 26.4411C79.6073 26.5794 79.3818 26.6542 79.1499 26.6542C78.918 26.6542 78.6924 26.5794 78.5075 26.4411C78.3226 26.3028 78.1885 26.1086 78.1256 25.888L75.1459 17.3715L73.4698 25.7829C73.4678 25.9344 73.4327 26.0837 73.3668 26.2206C73.3009 26.3575 73.2059 26.4787 73.0882 26.5759C72.9706 26.6731 72.833 26.744 72.685 26.7838C72.537 26.8235 72.382 26.8312 72.2307 26.8063C72.0794 26.7814 71.9354 26.7245 71.8084 26.6394C71.6815 26.5544 71.5746 26.4432 71.4952 26.3135C71.4158 26.1839 71.3657 26.0388 71.3483 25.8882C71.331 25.7377 71.3468 25.5852 71.3946 25.4412L73.5496 12.7715C73.5861 12.5343 73.7036 12.3166 73.8826 12.1544C74.0616 11.9923 74.2913 11.8956 74.5336 11.8802C74.7759 11.8649 75.0163 11.9319 75.2148 12.0701C75.4132 12.2083 75.5579 12.4094 75.6248 12.64L79.0834 22.2343L82.675 12.64C82.7411 12.416 82.8826 12.221 83.0761 12.0871C83.2696 11.9533 83.5035 11.8887 83.7392 11.904C83.9772 11.9073 84.2065 11.9934 84.3866 12.1473C84.5666 12.3012 84.686 12.5129 84.7235 12.7452L87.384 25.3886C87.4322 25.6596 87.3736 25.9386 87.2202 26.1683C87.0669 26.398 86.8304 26.5611 86.5593 26.624H86.3464C86.1046 26.6138 85.8727 26.5262 85.6856 26.3745C85.4985 26.2228 85.3663 26.0152 85.3088 25.7829Z" fill="#232323"/>
<path d="M100.447 25.6251C100.441 25.8975 100.33 26.1574 100.137 26.3525C99.9449 26.5476 99.6848 26.6634 99.4093 26.6766H89.7518C89.5507 26.6755 89.3539 26.6182 89.1844 26.5112C89.0149 26.4042 88.8796 26.2519 88.7941 26.072C88.6842 25.9083 88.6257 25.7163 88.6257 25.52C88.6257 25.3236 88.6842 25.1316 88.7941 24.968L97.414 14.0068H89.8051C89.5296 13.9936 89.2695 13.8778 89.077 13.6828C88.8845 13.4877 88.7739 13.2278 88.7675 12.9554C88.7674 12.6811 88.8758 12.4175 89.0697 12.2211C89.2636 12.0246 89.5274 11.9109 89.8051 11.904H99.4093C99.6112 11.9018 99.8093 11.9578 99.9795 12.0652C100.15 12.1726 100.284 12.3267 100.367 12.5086C100.471 12.6745 100.526 12.8656 100.526 13.0606C100.526 13.2555 100.471 13.4466 100.367 13.6126L91.96 24.5737H99.5158C99.7744 24.6059 100.012 24.7307 100.184 24.9245C100.355 25.1183 100.449 25.3676 100.447 25.6251Z" fill="#232323"/>
<path d="M108.455 20.2628L111.435 25.0731C111.507 25.1921 111.554 25.324 111.575 25.4612C111.595 25.5984 111.587 25.7382 111.553 25.8725C111.518 26.0069 111.457 26.1332 111.373 26.2441C111.289 26.355 111.183 26.4484 111.062 26.5188C110.904 26.6222 110.719 26.6771 110.53 26.6765C110.345 26.6759 110.163 26.63 110.001 26.5428C109.838 26.4556 109.7 26.33 109.599 26.1771L106.06 20.4468H103.905V25.704C103.899 25.9782 103.783 26.239 103.585 26.4305C103.386 26.622 103.119 26.7292 102.841 26.7291C102.703 26.7326 102.565 26.7087 102.436 26.6588C102.307 26.6088 102.19 26.5339 102.09 26.4383C101.991 26.3428 101.912 26.2286 101.859 26.1024C101.805 25.9763 101.777 25.8408 101.777 25.704V13.0605C101.801 12.8175 101.909 12.5901 102.084 12.4174C102.259 12.2447 102.489 12.1376 102.735 12.1143H107.258C108.369 12.1343 109.429 12.5774 110.217 13.3513C111.005 14.1251 111.461 15.1699 111.488 16.2674C111.449 17.158 111.139 18.0163 110.598 18.7294C110.057 19.4425 109.309 19.9771 108.455 20.2628ZM109.492 16.1885C109.486 15.9089 109.423 15.6334 109.308 15.3777C109.193 15.1219 109.029 14.8911 108.824 14.6982C108.619 14.5054 108.377 14.3543 108.113 14.2537C107.849 14.1532 107.567 14.105 107.284 14.112H103.905V18.344H107.284C107.865 18.344 108.423 18.1178 108.836 17.7143C109.25 17.3108 109.485 16.7626 109.492 16.1885Z" fill="#232323"/>
<path d="M122.795 12.8766V15.1372C122.818 16.3745 122.398 17.5801 121.609 18.5417C120.821 19.5033 119.715 20.1594 118.485 20.3943V25.6514C118.509 25.8016 118.5 25.9552 118.458 26.1017C118.417 26.2481 118.343 26.3838 118.244 26.4995C118.144 26.6152 118.02 26.7082 117.88 26.7719C117.74 26.8356 117.588 26.8686 117.434 26.8686C117.28 26.8686 117.128 26.8356 116.988 26.7719C116.848 26.7082 116.724 26.6152 116.624 26.4995C116.524 26.3838 116.451 26.2481 116.409 26.1017C116.368 25.9552 116.359 25.8016 116.383 25.6514V20.3943C115.158 20.1539 114.058 19.4956 113.275 18.5345C112.492 17.5734 112.076 16.3707 112.1 15.1372V12.8766C112.1 12.6047 112.209 12.344 112.404 12.1517C112.598 11.9594 112.862 11.8514 113.137 11.8514C113.415 11.8514 113.682 11.9585 113.881 12.15C114.079 12.3416 114.195 12.6023 114.202 12.8766V15.1372C114.202 15.9877 114.543 16.8033 115.152 17.4047C115.761 18.0061 116.586 18.344 117.447 18.344C118.308 18.344 119.134 18.0061 119.742 17.4047C120.351 16.8033 120.693 15.9877 120.693 15.1372V12.8766C120.693 12.6047 120.802 12.344 120.997 12.1517C121.192 11.9594 121.455 11.8514 121.731 11.8514C122.006 11.8578 122.269 11.967 122.467 12.1572C122.664 12.3474 122.781 12.6045 122.795 12.8766Z" fill="#232323"/>
</svg>
